# xmcd
#
# Track frame offsets: 
#        182
#        12927
#        25377
#        37025
#        48452
#        61682
#        73455
#        85205
#        95745
#        108667
#        118945
#        128642
#        142312
#        155560
#        165307
#        177630
#        190422
#        200512
#
# Disc length: 2854 seconds
#
# Revision: 1
# Processed by: cddbd v1.4PL0 Copyright (c) Steve Scherf et al.
# Submitted via: ExactAudioCopy v0.90b4
#
DISCID=120b2412
DTITLE=Jimmy McCracklin - Everybody Rock
DYEAR=1900
DGENRE=R&B
TTITLE0=The Walk
TTITLE1=I'm To Blame
TTITLE2=Minnie Lee
TTITLE3=Take Care Of Yourself
TTITLE4=Suffer
TTITLE5=Get Tough
TTITLE6=Later On
TTITLE7=Everybody Rock
TTITLE8=Come On
TTITLE9=I Know
TTITLE10=Country Baby
TTITLE11=He Knows The Rules
TTITLE12=The Wobble
TTITLE13=I'm Through
TTITLE14=Hurt Me
TTITLE15=I'll Take The Blame
TTITLE16=One Track Love
TTITLE17=Trottin'
EXTD=Blues Collection #66
EXTT0=
EXTT1=
EXTT2=
EXTT3=
EXTT4=
EXTT5=
EXTT6=
EXTT7=
EXTT8=
EXTT9=
EXTT10=
EXTT11=
EXTT12=
EXTT13=
EXTT14=
EXTT15=
EXTT16=
EXTT17=
PLAYORDER=
